<?xml version="1.0" standalone="no"?>
<!DOCTYPE svg PUBLIC "-//W3C//DTD SVG 20010904//EN"
 "http://www.w3.org/TR/2001/REC-SVG-20010904/DTD/svg10.dtd">
<svg version="1.0" xmlns="http://www.w3.org/2000/svg"
 width="500.000000pt" height="500.000000pt" viewBox="0 0 500.000000 500.000000"
 preserveAspectRatio="xMidYMid meet">

<g transform="translate(0.000000,500.000000) scale(0.100000,-0.100000)"
fill="#fff700" stroke="none">
<path d="M1940 4200 c-115 -39 -350 -150 -372 -177 -9 -11 -6 -51 12 -174 l23
-160 -39 -31 c-21 -17 -89 -82 -150 -144 l-111 -114 -159 25 c-184 29 -158 39
-228 -90 -52 -96 -106 -229 -140 -345 l-25 -85 37 -32 c20 -18 32 -33 25 -33
-6 0 -15 5 -18 10 -10 15 -151 12 -190 -5 -33 -13 -38 -13 -73 8 -31 19 -52
22 -134 22 -135 0 -137 -2 -173 -193 -15 -81 -43 -223 -62 -316 -39 -192 -36
-217 23 -242 48 -20 152 -18 195 4 30 15 40 16 65 5 37 -15 138 -17 179 -2 33
12 129 4 121 -10 -7 -10 39 -169 75 -259 17 -42 56 -125 86 -184 44 -85 61
-108 77 -108 12 0 87 10 168 21 l148 22 21 -29 c12 -16 77 -83 144 -149 l123
-121 -24 -159 -25 -160 23 -17 c46 -36 265 -138 368 -171 173 -56 144 -66 254
81 l96 129 214 0 214 0 93 -129 c69 -93 100 -128 115 -128 69 0 517 189 530
224 2 6 -7 80 -20 165 l-23 154 150 149 151 149 155 -25 156 -24 21 25 c54 64
173 338 204 472 12 52 12 55 -11 73 -20 17 -21 19 -4 13 11 -5 103 -10 205
-12 102 -2 219 -7 262 -10 99 -7 144 7 165 52 15 32 14 37 -22 143 -37 108
-37 109 -19 143 23 44 31 210 15 284 -25 110 -109 151 -290 140 -71 -5 -120
-13 -149 -26 -41 -19 -44 -19 -95 -1 -46 15 -52 20 -43 34 21 35 -83 322 -175
484 -35 61 -46 73 -63 69 -12 -3 -85 -14 -163 -26 l-143 -21 -26 34 c-15 18
-80 86 -146 150 l-119 117 24 158 c16 103 22 162 15 170 -32 40 -472 224 -531
223 -7 -1 -54 -58 -106 -128 l-95 -128 -214 1 -214 1 -92 127 c-107 149 -94
145 -266 87z m223 -383 c3 -7 24 -19 46 -27 27 -9 40 -18 37 -27 -4 -9 5 -12
35 -11 58 2 93 -27 97 -81 3 -35 -1 -46 -28 -72 -27 -27 -36 -31 -68 -26 -22
4 -46 17 -59 32 -25 29 -32 11 -9 -20 13 -18 9 -23 -57 -62 -40 -24 -77 -43
-84 -43 -6 0 -16 -15 -22 -33 -21 -64 -92 -82 -150 -38 -19 14 -24 28 -24 61
0 36 6 48 32 72 33 30 60 35 92 17 31 -16 45 -5 17 13 -19 12 -34 14 -69 8
-45 -9 -129 -3 -129 10 0 16 70 39 103 33 38 -6 77 10 77 32 0 23 49 73 79 80
33 7 47 30 24 39 -12 5 -13 9 -3 21 7 8 19 15 26 15 8 0 14 5 14 10 0 15 17
12 23 -3z m722 -8 c24 -5 34 -39 11 -39 -10 0 -13 -6 -10 -15 4 -8 13 -15 21
-15 30 0 75 -33 89 -65 17 -42 46 -59 88 -52 33 5 96 -15 96 -31 0 -13 -78
-22 -125 -13 -40 7 -85 -4 -85 -21 0 -5 10 -6 23 -1 74 26 137 -14 137 -87 0
-41 -29 -74 -76 -86 -35 -9 -87 25 -99 64 -5 18 -15 32 -21 32 -16 0 -154 80
-154 88 0 4 7 16 15 26 8 11 15 27 15 35 -1 10 -6 6 -15 -10 -39 -72 -151 -55
-171 26 -15 59 47 120 109 108 20 -4 27 -1 27 10 0 8 18 22 39 30 22 9 42 21
46 28 5 7 10 8 14 1 3 -5 15 -11 26 -13z m-188 -445 c260 -58 494 -239 610
-469 42 -83 43 -81 -48 -76 -53 2 -89 -1 -105 -10 -13 -7 -25 -10 -27 -8 -2 2
-23 35 -46 72 -82 127 -224 235 -374 282 -65 21 -98 25 -199 25 -134 0 -209
-15 -300 -60 -119 -59 -207 -135 -278 -241 l-40 -58 -110 -3 c-61 -2 -110 -1
-110 2 0 3 16 37 36 75 161 315 495 509 844 488 47 -2 113 -11 147 -19z
m-2136 -859 c31 -154 54 -283 52 -287 -2 -5 -35 -8 -74 -8 -67 0 -69 1 -69 25
0 23 -3 25 -48 25 -44 0 -49 -2 -59 -30 -11 -29 -13 -30 -77 -30 -47 0 -66 4
-66 13 0 7 25 138 55 292 30 154 55 281 55 283 0 1 39 1 87 0 l87 -3 57 -280z
m4148 270 c16 -8 31 -22 35 -30 3 -9 6 -70 6 -136 0 -115 -1 -121 -25 -143
l-25 -23 40 -114 c22 -62 40 -117 40 -122 0 -4 -32 -7 -71 -5 l-71 3 -37 97
c-20 54 -39 98 -43 98 -5 0 -8 -45 -8 -100 l0 -101 -67 3 -68 3 -3 287 -2 287
67 4 c163 8 205 7 232 -8z m-3975 -1 l46 -7 0 -209 0 -209 28 3 27 3 3 208 2
207 70 0 70 0 0 -244 c0 -244 0 -245 -24 -273 -24 -27 -27 -28 -143 -31 -107
-3 -121 -2 -143 16 l-25 20 -5 257 c-3 141 -3 259 -1 261 6 6 41 5 95 -2z
m467 -14 l109 0 0 -65 0 -65 -40 6 -40 6 -2 -208 -3 -209 -70 0 -70 0 -3 208
-2 207 -40 0 -40 0 0 66 0 67 46 -7 c26 -3 96 -6 155 -6z m3135 -260 c30 -146
54 -273 54 -282 0 -15 -10 -18 -66 -18 -63 0 -65 1 -75 30 -10 28 -15 30 -60
30 -46 0 -49 -2 -49 -25 0 -24 -2 -25 -70 -25 -63 0 -70 2 -70 20 0 18 96 500
105 528 4 9 27 12 91 10 l87 -3 53 -265z m-358 198 l-3 -63 -72 -3 -73 -3 0
-34 0 -35 73 0 72 0 -72 -66 c-67 -60 -73 -69 -73 -104 l0 -39 73 -3 72 -3 3
-63 3 -63 -143 3 -143 3 -3 255 c-1 140 0 260 3 267 3 10 41 13 145 13 l141 0
-3 -62z m-2329 28 c20 -18 21 -28 21 -227 0 -114 -3 -215 -6 -224 -13 -33 -59
-45 -169 -45 -104 0 -107 1 -136 29 l-29 29 0 197 c0 199 7 243 42 259 7 3 68
4 134 3 104 -2 125 -5 143 -21z m348 4 c34 -22 47 -63 40 -128 -5 -46 -11 -62
-35 -83 l-29 -26 29 -24 c55 -45 49 -189 -9 -220 -19 -10 -64 -14 -162 -14
l-136 0 -3 245 c-1 134 0 251 3 258 7 20 270 13 302 -8z m1311 13 c-2 -5 -31
-63 -66 -131 -60 -118 -62 -124 -48 -150 9 -15 38 -73 66 -129 l50 -103 -73 0
-73 0 -28 57 -28 58 -27 -55 -27 -55 -72 -3 c-40 -2 -72 -1 -72 1 0 3 27 59
60 126 33 67 60 129 60 139 0 9 -27 68 -59 130 l-59 112 72 0 71 0 25 -45 c14
-25 27 -45 30 -45 3 0 18 23 33 50 l28 50 70 0 c39 0 69 -3 67 -7z m338 -18
c22 -22 25 -32 22 -83 l-3 -57 -67 -3 c-67 -3 -68 -3 -68 23 0 21 -5 25 -30
25 l-30 0 0 -141 0 -140 28 3 c25 3 27 7 30 50 2 26 -4 62 -12 83 -9 21 -16
39 -16 41 0 2 38 4 85 4 l85 0 0 -115 c0 -174 -11 -185 -171 -185 -104 0 -150
13 -163 45 -3 9 -6 108 -6 219 0 197 1 203 23 223 32 30 41 31 160 32 102 1
109 0 133 -24z m-1306 -40 l0 -55 -70 0 -70 0 0 -35 0 -35 65 0 c36 0 65 -4
65 -9 0 -5 -29 -33 -65 -62 -59 -48 -65 -56 -65 -91 l0 -38 70 0 70 0 0 -59 0
-58 -136 -7 c-75 -4 -137 -6 -139 -4 -4 5 -10 302 -7 411 l2 97 140 0 140 0 0
-55z m160 -135 l0 -190 55 0 56 0 -3 -62 c-2 -35 -6 -62 -10 -60 -5 1 -59 2
-122 2 l-114 0 -7 125 c-4 69 -4 181 0 250 l7 125 69 0 69 0 0 -190z m272 1
l-4 -190 58 -3 59 -3 3 -63 3 -63 -128 3 -128 3 -3 253 -2 252 73 0 73 0 -4
-189z m461 -399 c48 -2 87 -7 87 -11 0 -22 -112 -184 -168 -243 -111 -117
-229 -190 -392 -243 -114 -37 -317 -46 -436 -20 -252 55 -475 213 -592 417
-63 112 -68 103 59 103 l110 0 31 -45 c76 -114 202 -211 336 -261 112 -41 267
-51 385 -25 176 39 328 146 432 304 20 31 33 41 44 36 9 -4 55 -9 104 -12z"/>
<path d="M2135 3771 c-7 -12 31 -25 45 -16 6 4 8 11 5 16 -8 12 -42 12 -50 0z"/>
<path d="M2250 3710 c-41 -41 -14 -110 42 -110 27 0 52 22 62 57 5 17 1 29
-18 48 -30 30 -59 32 -86 5z"/>
<path d="M1921 3514 c-25 -32 -27 -57 -5 -78 38 -38 98 -27 110 20 9 34 0 40
-30 20 -33 -21 -45 -2 -17 28 12 12 18 26 14 29 -15 16 -53 5 -72 -19z"/>
<path d="M2050 3510 c0 -5 4 -10 9 -10 6 0 13 5 16 10 3 6 -1 10 -9 10 -9 0
-16 -4 -16 -10z"/>
<path d="M2823 3768 c2 -7 12 -13 22 -13 10 0 20 6 23 13 2 7 -6 12 -23 12
-17 0 -25 -5 -22 -12z"/>
<path d="M2690 3723 c-63 -23 -43 -123 25 -123 30 0 65 32 65 60 0 24 -42 70
-62 69 -7 0 -20 -3 -28 -6z"/>
<path d="M3006 3531 c-3 -4 6 -18 19 -31 31 -29 22 -47 -12 -25 -31 21 -46 8
-30 -25 31 -61 117 -43 117 25 0 24 -7 39 -22 49 -24 17 -64 21 -72 7z"/>
<path d="M2935 3510 c3 -5 8 -10 11 -10 2 0 4 5 4 10 0 6 -5 10 -11 10 -5 0
-7 -4 -4 -10z"/>
<path d="M406 2494 c-4 -27 -10 -59 -13 -71 -4 -20 -1 -23 22 -23 l27 0 -7 58
c-10 81 -21 95 -29 36z"/>
<path d="M4554 2636 c-3 -8 -4 -27 -2 -43 2 -22 9 -29 31 -31 26 -3 27 -2 27
42 0 43 -2 46 -25 46 -14 0 -28 -6 -31 -14z"/>
<path d="M4187 2515 c-3 -16 -9 -49 -12 -72 -6 -41 -6 -43 19 -43 25 0 25 1
19 48 -3 26 -9 58 -13 72 -7 25 -7 25 -13 -5z"/>
<path d="M1472 2493 l3 -138 25 0 25 0 3 138 3 137 -31 0 -31 0 3 -137z"/>
<path d="M1840 2595 c0 -31 3 -35 25 -35 22 0 25 4 25 35 0 31 -3 35 -25 35
-22 0 -25 -4 -25 -35z"/>
<path d="M1840 2395 c0 -31 3 -35 25 -35 22 0 25 4 25 35 0 31 -3 35 -25 35
-22 0 -25 -4 -25 -35z"/>
</g>
</svg>
